<?xml version="1.0" standalone="no"?><!DOCTYPE svg PUBLIC "-//W3C//DTD SVG 1.1//EN" "http://www.w3.org/Graphics/SVG/1.1/DTD/svg11.dtd"><svg t="1687625371763" class="icon" viewBox="0 0 1024 1024" version="1.1" xmlns="http://www.w3.org/2000/svg" p-id="2610" width="128" height="128" xmlns:xlink="http://www.w3.org/1999/xlink"><path d="M215.953 466.886c-23.01 0-41.667 18.656-41.667 41.667v208.333c0 23.01 18.657 41.667 41.667 41.667s41.667-18.657 41.667-41.667V508.553c0-23.011-18.657-41.667-41.667-41.667z m208.333-208.334c-23.01 0-41.667 18.657-41.667 41.667v416.667c0 23.01 18.656 41.667 41.667 41.667s41.667-18.657 41.667-41.667V300.219c0-23.01-18.657-41.667-41.667-41.667z m208.333 83.334c-23.01 0-41.666 18.656-41.666 41.667v333.333c0 23.01 18.656 41.667 41.666 41.667s41.666-18.657 41.666-41.667V383.553c0-23.011-18.656-41.667-41.666-41.667z m208.334 208.333c-23.01 0-41.666 18.637-41.666 41.667v125c0 23.01 18.656 41.667 41.666 41.667s41.666-18.657 41.666-41.667v-125c0-23.031-18.656-41.667-41.666-41.667z" fill="#ffffff" p-id="2611"></path></svg>