<?xml version="1.0" standalone="no"?><!DOCTYPE svg PUBLIC "-//W3C//DTD SVG 1.1//EN" "http://www.w3.org/Graphics/SVG/1.1/DTD/svg11.dtd"><svg t="1687619150194" class="icon" viewBox="0 0 1024 1024" version="1.1" xmlns="http://www.w3.org/2000/svg" p-id="1966" xmlns:xlink="http://www.w3.org/1999/xlink" width="200" height="200"><path d="M738.1 904.5l-506-120.3c-13.4-3.2-21.7-16.7-18.5-30.1l143.8-604.8c3.2-13.4 16.7-21.7 30.1-18.5l506 120.3c13.4 3.2 21.7 16.7 18.5 30.1L768.2 886c-3.2 13.3-16.7 21.7-30.1 18.5z" fill="#FFFFFF" p-id="1967"></path><path d="M743.2 918c-3 0-6-0.3-9-1.1L230 797c-10.1-2.4-18.7-8.6-24.1-17.5s-7.2-19.3-4.8-29.4l143.3-603c2.4-10.1 8.6-18.7 17.5-24.1 8.9-5.5 19.3-7.2 29.4-4.8l504.2 119.9c10.1 2.4 18.7 8.6 24.1 17.5 5.5 8.9 7.2 19.3 4.8 29.4L781.1 888c-4.3 17.9-20.3 30-37.9 30zM382.4 143.2c-2.4 0-4.7 0.7-6.8 2-3 1.8-5 4.7-5.8 8l-143.3 603c-0.8 3.3-0.2 6.8 1.6 9.8s4.7 5 8 5.8l504.2 119.9c7 1.7 14-2.7 15.6-9.6l143.3-603c0.8-3.3 0.2-6.8-1.6-9.8s-4.7-5-8-5.8L385.4 143.6c-1-0.3-2-0.4-3-0.4z" fill="#222222" p-id="1968"></path><path d="M720.6 841.8H200.5c-13.8 0-25-11.3-25-25V206.6c0-13.8 11.3-25 25-25h520.1c13.8 0 25 11.3 25 25v610.2c0 13.7-11.3 25-25 25z" fill="#FFFFFF" p-id="1969"></path><path d="M719.6 854.8H201.4c-21.5 0-38.9-17.5-38.9-38.9V207.6c0-21.5 17.5-38.9 38.9-38.9h518.2c21.5 0 38.9 17.5 38.9 38.9v608.3c0.1 21.4-17.4 38.9-38.9 38.9zM201.4 194.6c-7.2 0-13 5.8-13 13v608.3c0 7.2 5.8 13 13 13h518.2c7.2 0 13-5.8 13-13V207.6c0-7.2-5.8-13-13-13H201.4z" fill="#222222" p-id="1970"></path><path d="M460.5 641.7c-80.5 0-146-65.5-146-146s65.5-146 146-146 146 65.5 146 146-65.5 146-146 146z m0-266c-66.2 0-120.1 53.9-120.1 120.1s53.9 120.1 120.1 120.1S580.6 562 580.6 495.8s-53.9-120.1-120.1-120.1z" fill="#222222" p-id="1971"></path><path d="M693.5 841.5c-7.9-84.2-109.2-150.8-233-150.8s-225.1 66.6-233 150.8h466z" fill="#222222" p-id="1972"></path><path d="M707.8 854.5H213.3l1.3-14.2c4.2-44.9 32.2-86.3 78.9-116.7 45.5-29.6 104.9-45.9 167.1-45.9s121.4 16.3 167 45.9c46.7 30.4 74.7 71.8 78.9 116.7l1.3 14.2z m-465-26h435.4c-7.5-31.5-30.1-60.6-64.8-83.1-41.4-26.9-95.7-41.7-152.9-41.7S349 718.5 307.6 745.4c-34.7 22.5-57.3 51.7-64.8 83.1z" fill="#222222" p-id="1973"></path></svg>